<?xml version="1.0" encoding="utf-8"?>
<?xml-stylesheet type="text/xsl" href="rss1.xsl"?>
<rss version="2.0" xmlns:atom="http://www.w3.org/2005/Atom" xmlns:content="http://purl.org/rss/1.0/modules/content/" xmlns:dc="http://purl.org/dc/elements/1.1/" xmlns:media="http://search.yahoo.com/mrss/">
<channel>
 <title>Getty</title>
 <link>http://www.gettyimg.com/</link>
 <atom:link href="http://www.gettyimg.com/" rel="self" type="application/rss+xml" />

 
                <item>
                <title><![CDATA[【Albums (lossless)】Welcome To The Night Of Your Life]]></title>
                <link><![CDATA[https://sharemania.us/threads/welcome-to-the-night-of-your-life.236535/]]></link>
                <description><![CDATA[<article>
<blockquote class="messageText SelectQuoteContainer ugc baseHtml">
Hi there, can someone send me the Official Stems of all the songs on Now United's "Welcome To The Night Of Your Life" album? (there are 13 or 14 songs in total)
<div class="messageTextEndMarker">&nbsp;</div>
</blockquote>
</article>]]></description>
                <author><![CDATA[diazuai]]></author>
                </item>

                
                <item>
                <title><![CDATA[【HD Live Performances】UPSCALE - Taylor Swift - My Tears Ricochet (The Eras Tour Film) (4K 60FPS) Upscale]]></title>
                <link><![CDATA[https://sharemania.us/threads/taylor-swift-my-tears-ricochet-the-eras-tour-film-4k-60fps-upscale.236534/]]></link>
                <description><![CDATA[<article>
<blockquote class="messageText SelectQuoteContainer ugc baseHtml">
<img src="https://i.imgur.com/OmhyuN4.jpeg" class="bbCodeImage LbImage" alt="[​IMG]" data-url="https://i.imgur.com/OmhyuN4.jpeg" style=""> <img src="https://i.imgur.com/fdNva5u.jpeg" class="bbCodeImage LbImage" alt="[​IMG]" data-url="https://i.imgur.com/fdNva5u.jpeg" style=""> <img src="https://i.imgur.com/FVq5XU1.jpeg" class="bbCodeImage LbImage" alt="[​IMG]" data-url="https://i.imgur.com/FVq5XU1.jpeg" style=""> <img src="https://i.imgur.com/ytK0UMY.jpeg" class="bbCodeImage LbImage" alt="[​IMG]" data-url="https://i.imgur.com/ytK0UMY.jpeg" style=""> <img src="https://i.imgur.com/XbhfDLW.jpeg" class="bbCodeImage LbImage" alt="[​IMG]" data-url="https://i.imgur.com/XbhfDLW.jpeg" style=""> <img src="https://i.imgur.com/VvopJIS.jpeg" class="bbCodeImage LbImage" alt="[​IMG]" data-url="https://i.imgur.com/VvopJIS.jpeg" style=""> <br>
<br>
<div class="ToggleTriggerAnchor bbCodeSpoilerContainer">
<button type="button" class="button bbCodeSpoilerButton ToggleTrigger Tooltip JsOnly" data-target="> .SpoilerTarget"><span>Spoiler: <span class="SpoilerTitle">MediaInfo</span></span></button>
<div class="SpoilerTarget bbCodeSpoilerText">General<br>
File size : 1.28 GiB<br>
Duration : 4 min 3 s<br>
Overall bit rate : 45.3 Mb/s<br>
Frame rate : 60.000 FPS<br>
<br>
Video<br>
ID : 1<br>
Format : AVC<br>
Format/Info : Advanced Video Codec<br>
Format profile : Main@L5.1<br>
Format settings : CABAC / 1 Ref Frames<br>
Format settings, CABAC : Yes<br>
Format settings, Reference fra : 1 frame<br>
Format settings, GOP : M=1, N=25<br>
Codec ID : avc1<br>
Codec ID/Info : Advanced Video Coding<br>
Duration : 4 min 3 s<br>
Bit rate : 45.0 Mb/s<br>
Width : 3 840 pixels<br>
Height : 2 160 pixels<br>
Display aspect ratio : 16:9<br>
Frame rate mode : Constant<br>
Frame rate : 60.000 FPS<br>
Standard : Component<br>
Color space : YUV<br>
Chroma subsampling : 4:2:0<br>
Bit depth : 8 bits<br>
Scan type : Progressive<br>
Bits/(Pixel*Frame) : 0.090<br>
Stream size : 1.28 GiB (99%)<br>
Color range : Limited<br>
Matrix coefficients : BT.709<br>
Codec configuration box : avcC<br>
<br>
Audio<br>
ID : 2<br>
Format : AAC LC<br>
Format/Info : Advanced Audio Codec Low Complexity<br>
Codec ID : mp4a-40-2<br>
Duration : 4 min 3 s<br>
Bit rate mode : Variable<br>
Bit rate : 256 kb/s<br>
Maximum bit rate : 320 kb/s<br>
Channel(s) : 2 channels<br>
Channel layout : L R<br>
Sampling rate : 44.1 kHz<br>
Frame rate : 43.066 FPS (1024 SPF)<br>
Compression mode : Lossy<br>
Stream size : 7.44 MiB (0%)<br>
Default : Yes<br>
Alternate group : 1</div>
</div><br>
<div class="bbCodeBlock bbCodeVfcHH HiddenContent">
<div class="attribution type">Hidden Content:</div>
<blockquote>You must reply before you can see the hidden data contained here.</blockquote>
</div>
<div class="messageTextEndMarker">&nbsp;</div>
</blockquote>
</article>]]></description>
                <author><![CDATA[Avril1255]]></author>
                </item>

                
                <item>
                <title><![CDATA[【Helpdesk】Why I can't post on the Requests section?]]></title>
                <link><![CDATA[https://sharemania.us/threads/why-i-cant-post-on-the-requests-section.236533/]]></link>
                <description><![CDATA[<article>
<blockquote class="messageText SelectQuoteContainer ugc baseHtml">
<a href="https://sharemania.us/forums/requests.16/" class="internalLink">https://sharemania.us/forums/requests.16/</a><br>
<br>
Edit: nevermind. I've seen that "Regular members limited to 1 request every 8 days".
<div class="messageTextEndMarker">&nbsp;</div>
</blockquote>
</article>]]></description>
                <author><![CDATA[caladan]]></author>
                </item>

                </channel></rss>